<?xml version="1.0" encoding="UTF-8" standalone="no" ?>
<!DOCTYPE svg PUBLIC "-//W3C//DTD SVG 1.1//EN" "http://www.w3.org/Graphics/SVG/1.1/DTD/svg11.dtd">
<svg xmlns="http://www.w3.org/2000/svg" xmlns:xlink="http://www.w3.org/1999/xlink" version="1.1" width="1080" height="360" viewBox="0 0 1080 360" xml:space="preserve">
<desc>Created with Fabric.js 5.2.4</desc>
<defs>
</defs>
<rect x="0" y="0" width="100%" height="100%" fill="transparent"></rect>
<g transform="matrix(0 0 0 0 0 0)" id="24bee1d7-c94e-4691-a2c8-9648b6156b53"  >
</g>
<g transform="matrix(1 0 0 1 540 180)" id="6f0bb721-e4a6-4b79-a10f-7716602bfde5"  >
<rect style="stroke: none; stroke-width: 1; stroke-dasharray: none; stroke-linecap: butt; stroke-dashoffset: 0; stroke-linejoin: miter; stroke-miterlimit: 4; fill: rgb(216,225,233); fill-rule: nonzero; opacity: 1; visibility: hidden;" vector-effect="non-scaling-stroke"  x="-540" y="-180" rx="0" ry="0" width="1080" height="360" />
</g>
<g transform="matrix(1.41 0 0 1.41 242.58 249.88)"  >
<path style="stroke: none; stroke-width: 1; stroke-dasharray: none; stroke-linecap: butt; stroke-dashoffset: 0; stroke-linejoin: miter; stroke-miterlimit: 4; fill: rgb(118,170,240); fill-rule: nonzero; opacity: 0.5;" vector-effect="non-scaling-stroke"  transform=" translate(-347.19, -589.73)" d="M 359.48 551.25 L 382.29 551.25 C 377.55 589.38 349.06 620.12 312.09000000000003 628.2 L 312.09000000000003 604.9100000000001 C 336.54 597.6100000000001 355.20000000000005 576.8700000000001 359.48 551.2500000000001 Z" stroke-linecap="round" />
</g>
<g transform="matrix(1.41 0 0 1.41 107.72 247.08)"  >
<path style="stroke: none; stroke-width: 1; stroke-dasharray: none; stroke-linecap: butt; stroke-dashoffset: 0; stroke-linejoin: miter; stroke-miterlimit: 4; fill: rgb(99,179,255); fill-rule: nonzero; opacity: 0.44;" vector-effect="non-scaling-stroke"  transform=" translate(-251.16, -587.71)" d="M 202.51 545.12 L 225.13 545.12 C 227.74 580.14 256.99 607.74 292.68 607.74 C 295.09000000000003 607.74 297.46 607.62 299.81 607.38 L 299.81 630.03 C 297.46 630.22 295.08 630.31 292.68 630.31 C 244.52 630.31 205.16000000000003 592.6199999999999 202.51 545.1199999999999 Z" stroke-linecap="round" />
</g>
<g transform="matrix(1.41 0 0 1.41 74.4 92.44)"  >
<path style="stroke: none; stroke-width: 1; stroke-dasharray: none; stroke-linecap: butt; stroke-dashoffset: 0; stroke-linejoin: miter; stroke-miterlimit: 4; fill: rgb(165,203,255); fill-rule: nonzero; opacity: 1;" vector-effect="non-scaling-stroke"  transform=" translate(-227.61, -477.79)" d="M 222.74 482.88 C 225.71 479.24 228.97 475.84 232.47 472.71 C 230.83 477.33 227.26 481.03999999999996 222.74 482.88 Z" stroke-linecap="round" />
</g>
<g transform="matrix(1.41 0 0 1.41 94.13 112.14)"  >
<path style="stroke: none; stroke-width: 1; stroke-dasharray: none; stroke-linecap: butt; stroke-dashoffset: 0; stroke-linejoin: miter; stroke-miterlimit: 4; fill: rgb(165,203,255); fill-rule: nonzero; opacity: 1;" vector-effect="non-scaling-stroke"  transform=" translate(-241.53, -491.69)" d="M 280.4 450.53 L 280.4 473.38 C 251.15999999999997 478.75 228.46999999999997 502.87 225.32999999999998 532.84 L 202.65999999999997 532.84 C 203.91999999999996 516.82 209.35999999999996 501.98 217.87999999999997 489.40000000000003 C 229.33999999999997 488.58000000000004 238.44999999999996 479.15000000000003 238.75999999999996 467.56000000000006 C 250.69999999999996 458.65000000000003 264.92999999999995 452.63000000000005 280.4 450.5300000000001 Z" stroke-linecap="round" />
</g>
<g transform="matrix(1.41 0 0 1.41 229.47 115.86)"  >
<path style="stroke: none; stroke-width: 1; stroke-dasharray: none; stroke-linecap: butt; stroke-dashoffset: 0; stroke-linejoin: miter; stroke-miterlimit: 4; fill: rgb(147,195,242); fill-rule: nonzero; opacity: 0.6;" vector-effect="non-scaling-stroke"  transform=" translate(-337.83, -494.33)" d="M 292.68 449.69 C 342.21000000000004 449.69 382.43 489.56 382.97 538.97 L 360.39000000000004 538.97 C 359.85 502.03000000000003 329.74000000000007 472.26000000000005 292.68000000000006 472.26000000000005 L 292.68000000000006 449.69000000000005 Z" stroke-linecap="round" />
</g>
<g transform="matrix(1.41 0 0 1.41 58.48 77.22)"  >
<path style="stroke: none; stroke-width: 1; stroke-dasharray: none; stroke-linecap: butt; stroke-dashoffset: 0; stroke-linejoin: miter; stroke-miterlimit: 4; fill: rgb(165,203,255); fill-rule: nonzero; opacity: 1;" vector-effect="non-scaling-stroke"  transform=" translate(-216.24, -466.92)" d="M 233.47 466.93 C 233.47 468.96 233.12 470.90000000000003 232.47 472.71 C 230.83 477.33 227.26 481.03999999999996 222.74 482.88 C 220.73000000000002 483.71 218.54000000000002 484.15999999999997 216.24 484.15999999999997 C 206.72 484.15999999999997 199 476.43999999999994 199 466.92999999999995 C 199 457.41999999999996 206.72 449.68999999999994 216.24 449.68999999999994 C 225.76000000000002 449.68999999999994 233.47 457.40999999999997 233.47 466.92999999999995 Z" stroke-linecap="round" />
</g>
<g transform="matrix(1.41 0 0 1.41 166.08 179.42)"  >
<circle style="stroke: none; stroke-width: 1; stroke-dasharray: none; stroke-linecap: butt; stroke-dashoffset: 0; stroke-linejoin: miter; stroke-miterlimit: 4; fill: rgb(147,195,242); fill-opacity: 0.73; fill-rule: nonzero; opacity: 1;" vector-effect="non-scaling-stroke"  cx="0" cy="0" r="35.92" />
</g>
<g transform="matrix(1.41 0 0 1.41 459.16 177.74)"  >
<path style="stroke: none; stroke-width: 1; stroke-dasharray: none; stroke-linecap: butt; stroke-dashoffset: 0; stroke-linejoin: miter; stroke-miterlimit: 4; fill: rgb(58,58,59); fill-rule: nonzero; opacity: 1;" vector-effect="non-scaling-stroke"  transform=" translate(-463.58, -538.29)" d="M 515.91 473.8 L 515.91 489.17 L 472.45 489.17 L 472.45 602.79 L 454.71 602.79 L 454.71 489.16999999999996 L 411.25 489.16999999999996 L 411.25 473.79999999999995 L 515.91 473.79999999999995 Z" stroke-linecap="round" />
</g>
<g transform="matrix(1.41 0 0 1.41 577.05 203.05)"  >
<path style="stroke: none; stroke-width: 1; stroke-dasharray: none; stroke-linecap: butt; stroke-dashoffset: 0; stroke-linejoin: miter; stroke-miterlimit: 4; fill: rgb(58,58,59); fill-rule: nonzero; opacity: 1;" vector-effect="non-scaling-stroke"  transform=" translate(-547.51, -556.36)" d="M 568.42 511.33 C 574.68 514.46 579.4499999999999 518.52 582.7299999999999 523.49 C 585.8899999999999 528.23 587.9999999999999 533.76 589.05 540.08 C 589.9799999999999 544.4100000000001 590.4499999999999 551.32 590.4499999999999 560.8000000000001 L 521.52 560.8000000000001 C 521.81 570.34 524.0699999999999 578.0000000000001 528.28 583.7600000000001 C 532.49 589.5300000000001 539.02 592.4100000000001 547.86 592.4100000000001 C 556.11 592.4100000000001 562.7 589.69 567.62 584.2400000000001 C 570.43 581.0800000000002 572.42 577.4200000000001 573.59 573.2600000000001 L 589.13 573.2600000000001 C 588.72 576.7100000000002 587.36 580.5600000000001 585.05 584.8100000000001 C 582.74 589.0500000000001 580.15 592.5200000000001 577.28 595.21 C 572.48 599.89 566.54 603.0500000000001 559.4599999999999 604.69 C 555.65 605.6300000000001 551.3499999999999 606.1 546.55 606.1 C 534.8399999999999 606.1 524.92 601.84 516.78 593.32 C 508.64 584.8000000000001 504.57 572.88 504.57 557.5400000000001 C 504.57 542.2000000000002 508.67 530.1800000000001 516.86 520.7500000000001 C 525.0500000000001 511.3300000000001 535.77 506.6100000000001 549 506.6100000000001 C 555.67 506.6100000000001 562.14 508.1800000000001 568.4 511.3100000000001 Z M 574.2199999999999 548.25 C 573.5699999999999 541.4 572.0799999999999 535.93 569.7399999999999 531.83 C 565.4099999999999 524.22 558.18 520.4200000000001 548.0499999999998 520.4200000000001 C 540.7899999999998 520.4200000000001 534.6999999999998 523.0400000000001 529.7899999999998 528.2800000000001 C 524.8699999999999 533.5200000000001 522.2699999999999 540.1800000000001 521.9799999999999 548.2600000000001 L 574.2199999999999 548.2600000000001 Z" stroke-linecap="round" />
</g>
<g transform="matrix(1.41 0 0 1.41 718.48 200.73)"  >
<path style="stroke: none; stroke-width: 1; stroke-dasharray: none; stroke-linecap: butt; stroke-dashoffset: 0; stroke-linejoin: miter; stroke-miterlimit: 4; fill: rgb(58,58,59); fill-rule: nonzero; opacity: 1;" vector-effect="non-scaling-stroke"  transform=" translate(-648.18, -554.71)" d="M 609.86 508.74 L 624.88 508.74 L 624.88 522.09 C 629.33 516.59 634.04 512.64 639.02 510.24 C 644 507.84000000000003 649.53 506.64 655.62 506.64 C 668.97 506.64 677.98 511.28999999999996 682.66 520.6 C 685.23 525.69 686.52 532.98 686.52 542.46 L 686.52 602.7800000000001 L 670.4499999999999 602.7800000000001 L 670.4499999999999 543.5100000000001 C 670.4499999999999 537.7700000000001 669.5999999999999 533.1500000000001 667.9 529.6400000000001 C 665.09 523.7900000000001 660 520.8600000000001 652.62 520.8600000000001 C 648.87 520.8600000000001 645.8 521.2400000000001 643.4 522.0000000000001 C 639.0699999999999 523.2900000000001 635.26 525.8600000000001 631.98 529.7300000000001 C 629.35 532.8300000000002 627.63 536.0400000000001 626.84 539.3400000000001 C 626.0500000000001 542.6500000000001 625.65 547.3700000000001 625.65 553.5200000000001 L 625.65 602.7800000000001 L 609.84 602.7800000000001 L 609.84 508.74000000000007 Z" stroke-linecap="round" />
</g>
<g transform="matrix(1.41 0 0 1.41 850.57 202.2)"  >
<path style="stroke: none; stroke-width: 1; stroke-dasharray: none; stroke-linecap: butt; stroke-dashoffset: 0; stroke-linejoin: miter; stroke-miterlimit: 4; fill: rgb(58,58,59); fill-rule: nonzero; opacity: 1;" vector-effect="non-scaling-stroke"  transform=" translate(-742.18, -555.76)" d="M 702.84 590.31 L 758.6 522.8799999999999 L 706.97 522.8799999999999 L 706.97 508.7399999999999 L 779.85 508.7399999999999 L 779.85 521.6499999999999 L 724.45 588.6399999999999 L 781.5200000000001 588.6399999999999 L 781.5200000000001 602.7799999999999 L 702.8500000000001 602.7799999999999 L 702.8500000000001 590.3099999999998 Z" stroke-linecap="round" />
</g>
<g transform="matrix(1.41 0 0 1.41 984.1 202.71)"  >
<path style="stroke: none; stroke-width: 1; stroke-dasharray: none; stroke-linecap: butt; stroke-dashoffset: 0; stroke-linejoin: miter; stroke-miterlimit: 4; fill: rgb(58,58,59); fill-rule: nonzero; opacity: 1;" vector-effect="non-scaling-stroke"  transform=" translate(-837.18, -556.12)" d="M 868.44 518.14 C 876.8100000000001 526.22 881 538.1 881 553.79 C 881 569.4799999999999 877.31 581.48 869.94 591.37 C 862.5600000000001 601.26 851.12 606.21 835.61 606.21 C 822.67 606.21 812.4 601.83 804.79 593.08 C 797.18 584.33 793.37 572.58 793.37 557.83 C 793.37 542.0300000000001 797.38 529.44 805.4 520.07 C 813.42 510.71000000000004 824.1899999999999 506.02000000000004 837.71 506.02000000000004 C 849.83 506.02000000000004 860.07 510.06000000000006 868.44 518.14 Z M 858.6500000000001 580.7 C 862.5400000000001 572.7700000000001 864.4900000000001 563.94 864.4900000000001 554.23 C 864.4900000000001 545.45 863.0800000000002 538.3100000000001 860.2800000000001 532.8100000000001 C 855.83 524.1500000000001 848.1600000000001 519.82 837.2800000000001 519.82 C 827.6200000000001 519.82 820.6000000000001 523.5100000000001 816.21 530.88 C 811.82 538.26 809.63 547.15 809.63 557.57 C 809.63 567.9900000000001 811.83 575.9200000000001 816.21 582.59 C 820.6 589.26 827.57 592.6 837.11 592.6 C 847.59 592.6 854.77 588.64 858.67 580.7 Z" stroke-linecap="round" />
</g>
<g transform="matrix(0 0 0 0 0 0)"  >
<g style=""   >
</g>
</g>
<g transform="matrix(0 0 0 0 0 0)"  >
<g style=""   >
</g>
</g>
<g transform="matrix(0 0 0 0 0 0)"  >
<g style=""   >
</g>
</g>
<g transform="matrix(0 0 0 0 0 0)"  >
<g style=""   >
</g>
</g>
<g transform="matrix(0 0 0 0 0 0)"  >
<g style=""   >
</g>
</g>
<g transform="matrix(0 0 0 0 0 0)"  >
<g style=""   >
</g>
</g>
<g transform="matrix(0 0 0 0 0 0)"  >
<g style=""   >
</g>
</g>
<g transform="matrix(NaN NaN NaN NaN 0 0)"  >
<g style=""   >
</g>
</g>
<g transform="matrix(NaN NaN NaN NaN 0 0)"  >
<g style=""   >
</g>
</g>
</svg>